<svg width="29" height="29" viewBox="0 0 29 29" fill="none" xmlns="http://www.w3.org/2000/svg">
<path d="M14.4994 9.67357C11.8273 9.67357 9.67314 11.8486 9.67314 14.5C9.67314 17.1514 11.848 19.3264 14.4994 19.3264C17.1507 19.3264 19.3256 17.1514 19.3256 14.5C19.3256 11.8486 17.1507 9.67357 14.4994 9.67357ZM28.9987 14.5C28.9987 12.4907 28.9987 10.5229 28.8951 8.51357C28.7916 6.19357 28.253 4.12214 26.5545 2.44429C24.856 0.745714 22.8054 0.207143 20.4855 0.103571C18.4763 -1.00317e-07 16.5086 0 14.4994 0C12.4902 0 10.5224 -1.00317e-07 8.51319 0.103571C6.1933 0.207143 4.12196 0.745714 2.44418 2.44429C0.745681 4.14286 0.207134 6.19357 0.103567 8.51357C-1.00312e-07 10.5229 0 12.4907 0 14.5C0 16.5093 -1.00312e-07 18.4771 0.103567 20.4864C0.207134 22.8064 0.745681 24.8779 2.44418 26.5557C4.14267 28.2543 6.1933 28.7929 8.51319 28.8964C10.5224 29 12.4902 29 14.4994 29C16.5086 29 18.4763 29 20.4855 28.8964C22.8054 28.7929 24.8767 28.2543 26.5545 26.5557C28.253 24.8571 28.7916 22.8064 28.8951 20.4864C29.0194 18.4979 28.9987 16.5093 28.9987 14.5ZM14.4994 21.9364C10.3774 21.9364 7.06326 18.6221 7.06326 14.5C7.06326 10.3779 10.3774 7.06357 14.4994 7.06357C18.6213 7.06357 21.9355 10.3779 21.9355 14.5C21.9355 18.6221 18.6213 21.9364 14.4994 21.9364ZM22.2462 8.49286C21.2933 8.49286 20.5062 7.72643 20.5062 6.75286C20.5062 5.77929 21.2726 5.01286 22.2462 5.01286C23.2197 5.01286 23.9861 5.77929 23.9861 6.75286C23.9913 6.97975 23.9499 7.20531 23.8644 7.41554C23.7789 7.62577 23.6511 7.81619 23.489 7.975C23.3302 8.13714 23.1397 8.26493 22.9295 8.35045C22.7193 8.43596 22.4938 8.47738 22.2669 8.47214L22.2462 8.49286Z" fill="white"/>
</svg>
