<svg width="30" height="30" viewBox="0 0 30 30" fill="none" xmlns="http://www.w3.org/2000/svg">
<path d="M14.5833 0C11.699 0 8.87949 0.855298 6.48127 2.45773C4.08306 4.06017 2.21387 6.33778 1.1101 9.00253C0.00631873 11.6673 -0.28248 14.5995 0.280221 17.4284C0.842922 20.2573 2.23185 22.8558 4.27137 24.8953C6.31088 26.9348 8.90938 28.3238 11.7383 28.8865C14.5672 29.4492 17.4994 29.1604 20.1641 28.0566C22.8289 26.9528 25.1065 25.0836 26.7089 22.6854C28.3114 20.2872 29.1667 17.4676 29.1667 14.5833C29.1667 12.6682 28.7895 10.7719 28.0566 9.00253C27.3237 7.2332 26.2495 5.62555 24.8953 4.27136C23.5411 2.91717 21.9335 1.84297 20.1641 1.11009C18.3948 0.377209 16.4985 0 14.5833 0ZM19.2208 22.0967C19.1664 22.2329 19.0835 22.3559 18.9776 22.4575C18.8717 22.559 18.7452 22.6367 18.6068 22.6853C18.4684 22.7339 18.3212 22.7524 18.1751 22.7394C18.0289 22.7264 17.8873 22.6823 17.7596 22.61L13.8002 19.5329L11.2598 21.8779C11.2008 21.9215 11.1319 21.9495 11.0592 21.9594C10.9866 21.9694 10.9127 21.9609 10.8442 21.9348L11.3313 17.5758L11.3458 17.589L11.356 17.5029C11.356 17.5029 18.48 11.0162 18.7702 10.7406C19.0648 10.465 18.9671 10.4052 18.9671 10.4052C18.9846 10.0698 18.4406 10.4052 18.4406 10.4052L9.00084 16.4777L5.07063 15.139C5.07063 15.139 4.46688 14.9231 4.41001 14.4463C4.35021 13.9738 5.08959 13.7171 5.08959 13.7171L20.7185 7.5075C20.7185 7.5075 22.0033 6.93583 22.0033 7.88375L19.2208 22.0967Z" fill="white"/>
</svg>
