<svg width="29" height="29" viewBox="0 0 29 29" fill="none" xmlns="http://www.w3.org/2000/svg">
<path fill-rule="evenodd" clip-rule="evenodd" d="M29 4.09487C29 1.83334 27.1667 0 24.9051 0H4.09487C1.83334 0 0 1.83334 0 4.09487V24.9051C0 27.1667 1.83334 29 4.09487 29H24.9051C27.1667 29 29 27.1667 29 24.9051V4.09487ZM24.025 12.6482C22.154 12.6691 20.4105 12.1035 18.8798 11.0559V18.41C18.8798 21.6785 16.6424 24.4863 13.4787 25.2195C9.16244 26.2043 5.50859 23.0824 5.04774 19.353C4.56583 15.6235 6.94441 12.3549 10.5901 11.6216C11.3024 11.4749 12.3739 11.4749 12.9267 11.6007V15.5396C12.7566 15.4978 12.5973 15.4559 12.4297 15.4349C11.005 15.1835 9.62503 15.8958 9.05931 17.1949C8.49363 18.494 8.87226 20.0025 10.0246 20.8826C10.9884 21.6368 12.0577 21.7415 13.1472 21.2386C14.2368 20.7568 14.8223 19.8768 14.9479 18.6826C14.9689 18.515 14.9677 18.3264 14.9677 18.1378V3.99497C14.9677 3.59691 14.9709 3.61427 15.3689 3.61427H18.4908C18.7213 3.61427 18.8052 3.64744 18.8261 3.91997C18.9936 6.35042 20.8389 8.42029 23.2065 8.73462C23.458 8.77649 23.7274 8.79309 24.025 8.81401V12.6482Z" fill="white"/>
</svg>
