<svg width="115" height="28" viewBox="0 0 115 28" fill="none" xmlns="http://www.w3.org/2000/svg">
<path d="M27.5586 21.9159C25.072 21.9159 23.0154 21.0948 21.3889 19.4527C19.7624 17.8106 18.9491 15.8009 18.9491 13.4237C18.9491 11.0465 19.7624 9.03682 21.3889 7.39467C23.0154 5.75253 25.072 4.93146 27.5586 4.93146C29.0757 4.93146 30.4676 5.29899 31.7344 6.03404C33.0012 6.75346 33.9786 7.73092 34.6668 8.96644L33.2123 9.81097C32.6962 8.81005 31.9299 8.01243 30.9133 7.41813C29.8967 6.82383 28.7785 6.52668 27.5586 6.52668C25.5099 6.52668 23.8364 7.19136 22.5384 8.52072C21.2403 9.85007 20.5913 11.4844 20.5913 13.4237C20.5913 15.363 21.2403 16.9973 22.5384 18.3267C23.8364 19.656 25.5099 20.3207 27.5586 20.3207C28.7785 20.3207 29.8967 20.0235 30.9133 19.4292C31.9299 18.8349 32.6962 18.0373 33.2123 17.0364L34.6668 17.8575C33.9943 19.093 33.0168 20.0783 31.7344 20.8133C30.4676 21.5484 29.0757 21.9159 27.5586 21.9159ZM38.681 11.8519C39.4005 10.4287 40.636 9.71714 42.3876 9.71714V11.2185C41.3241 11.2185 40.4405 11.5313 39.7367 12.1569C39.0329 12.7825 38.681 13.7678 38.681 15.1128V21.6344H37.1327V9.90481H38.681V11.8519ZM53.184 9.90481H54.8261L49.8058 22.7135C49.3523 23.8709 48.7033 24.7779 47.8587 25.4348C47.0298 26.1073 46.0993 26.4044 45.0671 26.3262V24.8718C46.4746 25.0282 47.5459 24.2149 48.281 22.432L48.586 21.7048L43.3311 9.90481H44.9732L49.3836 19.7342L53.184 9.90481ZM62.9844 9.6233C64.6578 9.6233 66.081 10.2176 67.254 11.4062C68.4426 12.5948 69.0369 14.0493 69.0369 15.7696C69.0369 17.49 68.4426 18.9444 67.254 20.133C66.081 21.3216 64.6578 21.9159 62.9844 21.9159C60.9044 21.9159 59.3248 21.0557 58.2456 19.3354V26.3262H56.6973V9.90481H58.2456V12.2038C59.3248 10.4835 60.9044 9.6233 62.9844 9.6233ZM59.5828 19.0774C60.4743 19.9688 61.569 20.4145 62.8671 20.4145C64.1652 20.4145 65.26 19.9688 66.1514 19.0774C67.0428 18.1703 67.4886 17.0677 67.4886 15.7696C67.4886 14.4715 67.0428 13.3768 66.1514 12.4853C65.26 11.5782 64.1652 11.1247 62.8671 11.1247C61.569 11.1247 60.4743 11.5782 59.5828 12.4853C58.6914 13.3768 58.2456 14.4715 58.2456 15.7696C58.2456 17.0677 58.6914 18.1703 59.5828 19.0774ZM77.0773 21.9159C75.3101 21.9159 73.84 21.3294 72.667 20.1565C71.494 18.9679 70.9076 17.5056 70.9076 15.7696C70.9076 14.0336 71.494 12.5792 72.667 11.4062C73.84 10.2176 75.3101 9.6233 77.0773 9.6233C78.2347 9.6233 79.2747 9.90481 80.1974 10.4678C81.1201 11.0152 81.7926 11.7581 82.2149 12.6965L80.9481 13.4237C80.6353 12.7199 80.127 12.1647 79.4233 11.7581C78.7351 11.3358 77.9531 11.1247 77.0773 11.1247C75.7793 11.1247 74.6845 11.5782 73.793 12.4853C72.9016 13.3768 72.4559 14.4715 72.4559 15.7696C72.4559 17.0677 72.9016 18.1703 73.793 19.0774C74.6845 19.9688 75.7793 20.4145 77.0773 20.4145C77.9531 20.4145 78.7351 20.2112 79.4233 19.8046C80.1114 19.3823 80.651 18.8193 81.0419 18.1155L82.3322 18.8662C81.8474 19.8046 81.1358 20.5475 80.1974 21.0948C79.259 21.6422 78.219 21.9159 77.0773 21.9159ZM86.1034 11.8519C86.8229 10.4287 88.0584 9.71714 89.81 9.71714V11.2185C88.7465 11.2185 87.8629 11.5313 87.1591 12.1569C86.4553 12.7825 86.1034 13.7678 86.1034 15.1128V21.6344H84.5551V9.90481H86.1034V11.8519ZM101.051 20.1565C99.8626 21.3294 98.4081 21.9159 96.6878 21.9159C94.9674 21.9159 93.5051 21.3294 92.3009 20.1565C91.1123 18.9679 90.518 17.5056 90.518 15.7696C90.518 14.0336 91.1123 12.5792 92.3009 11.4062C93.5051 10.2176 94.9674 9.6233 96.6878 9.6233C98.4081 9.6233 99.8626 10.2176 101.051 11.4062C102.255 12.5792 102.858 14.0336 102.858 15.7696C102.858 17.5056 102.255 18.9679 101.051 20.1565ZM93.4035 19.0774C94.2949 19.9688 95.3897 20.4145 96.6878 20.4145C97.9858 20.4145 99.0806 19.9688 99.972 19.0774C100.863 18.1703 101.309 17.0677 101.309 15.7696C101.309 14.4715 100.863 13.3768 99.972 12.4853C99.0806 11.5782 97.9858 11.1247 96.6878 11.1247C95.3897 11.1247 94.2949 11.5782 93.4035 12.4853C92.512 13.3768 92.0663 14.4715 92.0663 15.7696C92.0663 17.0677 92.512 18.1703 93.4035 19.0774ZM105.448 21.6344V4.50919H106.997V21.6344H105.448ZM110.282 21.6344V4.50919H111.831V21.6344H110.282Z" fill="white"/>
<path d="M11.4494 8.32975L11.9355 8.16774V7.84373V7.51971L11.7735 7.03369L10.4774 5.73763L9.66736 4.76559L9.01934 4.27957H8.53331H7.39926L6.26521 4.76559L5.61718 5.73763V7.03369L5.45518 8.16774L5.61718 8.97778L6.26521 9.78781L7.39926 10.7599L8.2093 11.4079V12.0559L7.39926 11.7319L5.61718 9.78781H4.96916L4.64514 10.4358L5.45518 11.7319L6.26521 12.7039L7.07525 13.514L7.88528 14H9.01934L9.99138 13.514L10.6394 12.7039L11.1254 11.8939V10.9219L10.9634 9.78781L10.4774 8.65376L9.18134 7.1957L8.2093 6.38566L7.56127 6.87168L7.88528 8.16774L8.85733 9.30179L9.34335 10.2738V10.9219L8.53331 11.4079L9.18134 10.7599L8.53331 9.78781L7.88528 8.97778L7.07525 8.32975V7.51971V6.38566L7.56127 6.06165H8.53331L9.18134 6.54767L10.6394 8.16774L11.4494 8.32975Z" fill="white"/>
<path d="M10.9634 8.32975H11.4494M11.4494 8.32975L11.9355 8.16774V7.84373V7.51971L11.7735 7.03369L10.4774 5.73763L9.66736 4.76559L9.01934 4.27957H8.53331H7.39926L6.26521 4.76559L5.61718 5.73763V7.03369L5.45518 8.16774L5.61718 8.97778L6.26521 9.78781L7.39926 10.7599L8.2093 11.4079V12.0559L7.39926 11.7319L5.61718 9.78781H4.96916L4.64514 10.4358L5.45518 11.7319L6.26521 12.7039L7.07525 13.514L7.88528 14H9.01934L9.99138 13.514L10.6394 12.7039L11.1254 11.8939V10.9219L10.9634 9.78781L10.4774 8.65376L9.18134 7.1957L8.2093 6.38566L7.56127 6.87168L7.88528 8.16774L8.85733 9.30179L9.34335 10.2738V10.9219L8.53331 11.4079L9.18134 10.7599L8.53331 9.78781L7.88528 8.97778L7.07525 8.32975V7.51971V6.38566L7.56127 6.06165H8.53331L9.18134 6.54767L10.6394 8.16774L11.4494 8.32975Z" stroke="white" stroke-width="0.324014"/>
<path d="M7.8043 16.8351L8.29032 16.6731V16.3491V16.0251L8.12832 15.5391L6.83226 14.243L6.02222 13.271L5.37419 12.7849H4.88817H3.75412L2.62007 13.271L1.97204 14.243V15.5391L1.81004 16.6731L1.97204 17.4832L2.62007 18.2932L3.75412 19.2652L4.56416 19.9133V20.5613L3.75412 20.2373L1.97204 18.2932H1.32401L1 18.9412L1.81004 20.2373L2.62007 21.2093L3.43011 22.0194L4.24014 22.5054H5.37419L6.34624 22.0194L6.99427 21.2093L7.48029 20.3993V19.4272L7.31828 18.2932L6.83226 17.1591L5.5362 15.7011L4.56416 14.891L3.91613 15.3771L4.24014 16.6731L5.21219 17.8072L5.69821 18.7792V19.4272L4.88817 19.9133L5.5362 19.2652L4.88817 18.2932L4.24014 17.4832L3.43011 16.8351V16.0251V14.891L3.91613 14.567H4.88817L5.5362 15.053L6.99427 16.6731L7.8043 16.8351Z" fill="white"/>
<path d="M7.31828 16.8351H7.8043M7.8043 16.8351L8.29032 16.6731V16.3491V16.0251L8.12832 15.5391L6.83226 14.243L6.02222 13.271L5.37419 12.7849H4.88817H3.75412L2.62007 13.271L1.97204 14.243V15.5391L1.81004 16.6731L1.97204 17.4832L2.62007 18.2932L3.75412 19.2652L4.56416 19.9133V20.5613L3.75412 20.2373L1.97204 18.2932H1.32401L1 18.9412L1.81004 20.2373L2.62007 21.2093L3.43011 22.0194L4.24014 22.5054H5.37419L6.34624 22.0194L6.99427 21.2093L7.48029 20.3993V19.4272L7.31828 18.2932L6.83226 17.1591L5.5362 15.7011L4.56416 14.891L3.91613 15.3771L4.24014 16.6731L5.21219 17.8072L5.69821 18.7792V19.4272L4.88817 19.9133L5.5362 19.2652L4.88817 18.2932L4.24014 17.4832L3.43011 16.8351V16.0251V14.891L3.91613 14.567H4.88817L5.5362 15.053L6.99427 16.6731L7.8043 16.8351Z" stroke="white" stroke-width="0.324014"/>
<path d="M15.0946 16.8351L15.5806 16.6731V16.3491V16.0251L15.4186 15.5391L14.1225 14.243L13.3125 13.271L12.6645 12.7849H12.1785H11.0444L9.91035 13.271L9.26233 14.243V15.5391L9.10032 16.6731L9.26233 17.4832L9.91035 18.2932L11.0444 19.2652L11.8544 19.9133V20.5613L11.0444 20.2373L9.26233 18.2932H8.6143L8.29028 18.9412L9.10032 20.2373L9.91035 21.2093L10.7204 22.0194L11.5304 22.5054H12.6645L13.6365 22.0194L14.2845 21.2093L14.7706 20.3993V19.4272L14.6086 18.2932L14.1225 17.1591L12.8265 15.7011L11.8544 14.891L11.2064 15.3771L11.5304 16.6731L12.5025 17.8072L12.9885 18.7792V19.4272L12.1785 19.9133L12.8265 19.2652L12.1785 18.2932L11.5304 17.4832L10.7204 16.8351V16.0251V14.891L11.2064 14.567H12.1785L12.8265 15.053L14.2845 16.6731L15.0946 16.8351Z" fill="white"/>
<path d="M14.6086 16.8351H15.0946M15.0946 16.8351L15.5806 16.6731V16.3491V16.0251L15.4186 15.5391L14.1225 14.243L13.3125 13.271L12.6645 12.7849H12.1785H11.0444L9.91035 13.271L9.26233 14.243V15.5391L9.10032 16.6731L9.26233 17.4832L9.91035 18.2932L11.0444 19.2652L11.8544 19.9133V20.5613L11.0444 20.2373L9.26233 18.2932H8.6143L8.29028 18.9412L9.10032 20.2373L9.91035 21.2093L10.7204 22.0194L11.5304 22.5054H12.6645L13.6365 22.0194L14.2845 21.2093L14.7706 20.3993V19.4272L14.6086 18.2932L14.1225 17.1591L12.8265 15.7011L11.8544 14.891L11.2064 15.3771L11.5304 16.6731L12.5025 17.8072L12.9885 18.7792V19.4272L12.1785 19.9133L12.8265 19.2652L12.1785 18.2932L11.5304 17.4832L10.7204 16.8351V16.0251V14.891L11.2064 14.567H12.1785L12.8265 15.053L14.2845 16.6731L15.0946 16.8351Z" stroke="white" stroke-width="0.324014"/>
</svg>
